# Blender v2.76 (sub 0) OBJ File: 'Surfboard.blend'
# www.blender.org
mtllib Surfboard.mtl
o Surfboard_Cube
v 0.769739 0.073443 6.324858
v 0.750498 0.073444 5.236082
v -1.945350 0.073444 5.539657
v -1.934539 0.073443 6.151381
v 0.769739 -0.082459 6.324857
v 0.750498 -0.082459 5.236082
v -1.945350 -0.082459 5.539658
v -1.934539 -0.082459 6.151381
v -1.221558 0.073443 6.282697
v -1.237615 0.073444 5.374114
v -1.221558 -0.082459 6.282697
v -1.237615 -0.082459 5.374114
v 1.198353 0.073443 6.170492
v 1.184200 0.073443 5.369672
v 1.198353 -0.082460 6.170492
v 1.184200 -0.082459 5.369672
v 1.615841 0.073443 5.780777
v 1.615101 0.073443 5.738947
v 1.615841 -0.082460 5.780777
v 1.615101 -0.082460 5.738947
v -0.254070 0.073443 6.390978
v -0.274776 0.073444 5.219327
v -0.254070 -0.082459 6.390978
v -0.274776 -0.082459 5.219327
v -1.817775 0.073444 5.842577
v -1.817776 -0.082459 5.842577
v 0.257835 0.073443 6.357917
v 0.237861 0.073444 5.227705
v 0.257835 -0.082459 6.357917
v 0.237861 -0.082459 5.227704
v 1.398800 -0.082459 5.506200
v 1.407947 -0.082460 6.023745
v 1.407947 0.073443 6.023745
v 1.398801 0.073443 5.506200
v 0.266997 0.073455 -0.487715
v -0.245640 0.073455 -0.499527
v 0.266997 -0.082448 -0.487716
v -0.245641 -0.082448 -0.499528
vt 0.097656 0.505037
vt 0.083871 0.515052
vt 0.089137 0.531258
vt 0.106176 0.531258
vt 0.111441 0.515052
vt 0.112151 0.534026
vt 0.083162 0.534026
vt 0.083162 0.505037
vt 0.112151 0.505037
vt 0.921307 0.472088
vt 0.953693 0.472088
vt 0.953693 0.504474
vt 0.921307 0.504474
vn -0.000000 1.000000 0.000000
vn -0.000000 -1.000000 -0.000000
vn -0.227800 -0.000000 -0.973700
vn -0.935400 0.000000 -0.353700
vn -0.181100 0.000000 0.983500
vn -0.111200 0.000000 0.993800
vn -0.158700 0.000000 -0.987300
vn 0.294400 0.000000 -0.955700
vn 0.338800 -0.000000 0.940800
vn 0.999800 -0.000000 -0.017700
vn 0.759800 0.000000 0.650100
vn 0.732500 0.000000 -0.680800
vn 0.064400 0.000000 0.997900
vn -0.921600 0.000000 0.388100
vn 0.016300 0.000000 -0.999900
vn 0.536800 0.000000 -0.843700
vn 0.573500 0.000000 0.819200
vn 0.023000 0.000000 -0.999700
vn 1.000000 -0.000000 0.005100
vn -1.000000 0.000000 -0.005100
usemtl Material.001
s off
f 9/1/1 10/2/1 3/3/1 25/4/1 4/5/1
f 11/1/2 8/2/2 26/3/2 7/4/2 12/5/2
f 5/6/2 6/7/2 16/8/2 15/9/2
f 10/6/3 12/7/3 7/8/3 3/9/3
f 25/6/4 26/7/4 8/8/4 4/9/4
f 11/6/5 9/7/5 4/8/5 8/9/5
f 23/6/6 21/7/6 9/8/6 11/9/6
f 22/6/7 24/7/7 12/8/7 10/9/7
f 23/6/2 11/7/2 12/8/2 24/9/2
f 21/6/1 22/7/1 10/8/1 9/9/1
f 32/6/2 31/7/2 20/8/2 19/9/2
f 6/6/8 2/7/8 14/8/8 16/9/8
f 1/6/9 5/7/9 15/8/9 13/9/9
f 2/6/1 1/7/1 13/8/1 14/9/1
f 17/6/10 19/7/10 20/8/10 18/9/10
f 33/6/11 32/7/11 19/8/11 17/9/11
f 31/6/12 34/7/12 18/8/12 20/9/12
f 34/6/1 33/7/1 17/8/1 18/9/1
f 27/6/1 28/7/1 22/8/1 21/9/1
f 29/6/2 23/7/2 24/8/2 30/9/2
f 29/6/13 27/7/13 21/8/13 23/9/13
f 3/6/14 7/7/14 26/8/14 25/9/14
f 5/6/13 1/7/13 27/8/13 29/9/13
f 2/6/15 6/7/15 30/8/15 28/9/15
f 5/6/2 29/7/2 30/8/2 6/9/2
f 1/6/1 2/7/1 28/8/1 27/9/1
f 14/6/1 13/7/1 33/8/1 34/9/1
f 16/6/16 14/7/16 34/8/16 31/9/16
f 13/6/17 15/7/17 32/8/17 33/9/17
f 15/6/2 16/7/2 31/8/2 32/9/2
f 35/10/18 37/11/18 38/12/18 36/13/18
f 28/10/1 35/11/1 36/12/1 22/13/1
f 37/10/2 30/11/2 24/12/2 38/13/2
f 28/10/19 30/11/19 37/12/19 35/13/19
f 24/10/20 22/11/20 36/12/20 38/13/20
